<?xml version="1.0" encoding="UTF-8"?>
<svg viewBox="0 0 977.23 504.75" xmlns="http://www.w3.org/2000/svg">
 <path d="m453.64 306.73c-5.8267 45.035-16.739 133.89 12.875 132.98 146.45 14.397 279.27 3.2107 410.02-8.1086 26.462-7.3503 10.483-86.157 9.9038-129.74l-432.79 4.8651z" fill="#daa507"/>
 <path d="m449.05 242.83c-13.398 7.6536-24.395 80.412 2.2864 94.965 144.87 23.594 291.35-13.347 428.55-23.673 33.4 10.848 22.635-95.327-4.5831-109.76-144.16-9.2448-285.81 8.2155-426.26 38.471z" fill="#803300"/>
 <path d="m459.98 223.3c-12.64 4.8022-27.23 87.754-2.0577 96.885 104.16 12.594-35.808-46.352 408.53-52.153 31.511 6.8063 21.355-59.813-4.3239-68.871-136.01-5.8006-269.64 5.1548-402.14 24.139z" fill="#520"/>
 <path d="m446.7 214.29l394.08-9.7303c-84.766 51.604-134.07 8.168-268.69 175.14-99.301-177.36-90.911-119.96-125.39-165.42z" fill="#fd5"/>
 <path d="m449.86 194.83l394.08-9.7303c-84.766 51.604-134.07 8.168-268.69 175.14-99.301-177.36-90.911-119.96-125.39-165.42z" fill="#fc0"/>
 <path d="m492.79 162.96l354.15-2.181c76.206 47.093 129.45 84.248 33.176 56.706 39.96 89.857-66.783 6.7876-59.716-17.448 39.452 94.441-2.3967 71.7-29.029 30.534-4.6164 59.267-37.889 13.036-63.033-3.2715l29.858-19.629c-20.168 136.84-71.836 22.691-79.621-10.905 30.314 65.318-21.628 111.43-39.811-4.362 36.13 53.992-20.958 110.92-53.91 73.064l40.64-47.982c-81.87 161.01-101.77 8.8338-100.36-10.905l19.905 25.082c-14.568 80.92-60.614-38.417-68.839-68.702h16.588z" fill="#4a0"/>
 <path d="m490.76 209.93l333.44-40.968c72.802 11.951 123.76 22.158 32.494 21.01 39.616 34.718-62.737 10.509-56.618-0.87062 39.239 36.776-0.67126 31.576-26.66 16.611-3.0364 26.398-35.391 9.9726-59.429 5.6938l27.682-11.944c-15.965 62.022-67.143 18.024-75.218 4.2352 29.99 25.094-17.901 51.096-37.585 2.5938 35.216 19.491-17.282 50.795-49.149 37.992l37.208-25.541c-73.533 79.548-95.634 15.356-94.743 6.578l19.299 8.7018c-11.929 36.977-57.928-9.9243-66.343-22.218l15.62-1.8743z" fill="#338000"/>
 <path d="m717.5 157.53c-102.9 9.4253-205.65 19.36-300.3 58.382 0.62302 45.846 4.0129 57.623 7.3758 69.734 86.036-56.248 194.65-70.031 305.57-79.464-0.15527-11.011 3.5109-17.12-12.644-48.651z" fill="#eb3f0b"/>
 <path d="m713.06 165.64c-124 2.5793-208.36 30.475-292.7 58.382 74.401-8.9006 197.61-38.586 179.54-8.1086 36.366-7.4725 73.66-14.023 118.6-12.974 5.2015-26.373-2.8922-26.326-5.4405-37.299z" fill="#d40000"/>
 <path d="m451.46 200.99c153.43-4.1265 298.9-10.436 425.26-21.988 36.466-184.58-450.16-200.75-425.26 21.988z" fill="#daa507"/>
 <g fill="#d3bc5f">
  <path d="m451.97 371.6c0.013123 22.043-4.6919 48.443 8.4296 58.382 121.43 19.044 251.94 2.4334 365.63 1.6217-435.22 7.408-321.81-35.765-374.06-60.003z"/>
  <path d="m478.19 123.79c-8.2555-9.7717-33.24 52.932-17.913 71.355 271.56-8.5252 251.94-12.162 365.63-12.974-435.22 7.408-336.56-8.1961-347.72-58.382z"/>
 </g>
</svg>
